# xmcd
#
# Track frame offsets: 
#        183
#        31075
#        44400
#        57753
#        81683
#        105350
#        120423
#        132688
#        148985
#        162843
#        175180
#        188475
#        201850
#        214435
#        229483
#        241800
#
# Disc length: 3418 seconds
#
# Revision: 2
# Processed by: cddbd v1.5.2PL0 Copyright (c) Steve Scherf et al.
# Submitted via: ExactAudioCopy v0.99pb4
#
DISCID=e80d5810
DTITLE=John Lee Hooker - Rockstar Music 23
DYEAR=1992
DGENRE=Blues
TTITLE0=Let's Go Out Tonight
TTITLE1=One Bourbon, One Scotch, One Beer
TTITLE2=Stella Mae
TTITLE3=I Put My Trust On You
TTITLE4=The Waterfront
TTITLE5=I'll Never Trust Your Love Again
TTITLE6=In The Mood
TTITLE7=Peace Lovin' Man
TTITLE8=Louise
TTITLE9=High Priced Woman
TTITLE10=Union State Blues
TTITLE11=Ground Hog Blues
TTITLE12=Leave My Wife Alone
TTITLE13=Ramblin' By Myself
TTITLE14=Walkin The Boogie
TTITLE15=Sugar Mama
EXTD=AAD\n(c) 1992 Rockstar Music\nCharly Records International APS
EXTT0=(Hooker)
EXTT1=(Milburn)
EXTT2=(Hooker)
EXTT3=(Hooker)
EXTT4=(Hooker)
EXTT5=(Hooker)
EXTT6=(Hooker)
EXTT7=(Hooker)
EXTT8=(Hooker)
EXTT9=(Hooker)
EXTT10=(Hooker)
EXTT11=(Hooker)
EXTT12=(Hooker)
EXTT13=(Hooker)
EXTT14=(Hooker)
EXTT15=
PLAYORDER=
